<svg xmlns="http://www.w3.org/2000/svg" width="1200" height="630" viewBox="0 0 1200 630">
  
<defs>
  <linearGradient id="bg" x1="0" y1="0" x2="0" y2="1">
    <stop offset="0" stop-color="#15413a"/>
    <stop offset="0.45" stop-color="#0d2820"/>
    <stop offset="1" stop-color="#07140f"/>
  </linearGradient>
  <radialGradient id="sun" cx="0.5" cy="0.16" r="0.7">
    <stop offset="0" stop-color="#e89a3c" stop-opacity="0.55"/>
    <stop offset="0.5" stop-color="#c66a26" stop-opacity="0.12"/>
    <stop offset="1" stop-color="#c66a26" stop-opacity="0"/>
  </radialGradient>
  <linearGradient id="head" x1="0" y1="0" x2="0" y2="1">
    <stop offset="0" stop-color="#15392d"/>
    <stop offset="1" stop-color="#0a1f18"/>
  </linearGradient>
  <linearGradient id="contour" x1="0" y1="0" x2="0" y2="1">
    <stop offset="0" stop-color="#7cc593"/>
    <stop offset="0.55" stop-color="#5fa777"/>
    <stop offset="1" stop-color="#2fa6c2"/>
  </linearGradient>
  <radialGradient id="dot" cx="0.4" cy="0.35" r="0.8">
    <stop offset="0" stop-color="#ffe6b8"/>
    <stop offset="0.5" stop-color="#f4b860"/>
    <stop offset="1" stop-color="#e3892f"/>
  </radialGradient>
  <filter id="glow" x="-60%" y="-60%" width="220%" height="220%">
    <feGaussianBlur stdDeviation="9" result="b"/>
    <feMerge><feMergeNode in="b"/><feMergeNode in="SourceGraphic"/></feMerge>
  </filter>
  <clipPath id="headClip"><path d="
M 215 548
C 245 505, 300 484, 362 470
C 432 432, 470 298, 578 258
C 672 270, 752 312, 776 400
C 800 492, 792 600, 756 690
C 730 752, 686 778, 628 772
C 548 766, 470 740, 430 686
C 405 652, 372 612, 330 590
C 300 574, 255 566, 215 558
Z"/></clipPath>
</defs>
  <linearGradient id="ogbg" x1="0" y1="0" x2="1" y2="1">
    <stop offset="0" stop-color="#0c2a22"/>
    <stop offset="1" stop-color="#07140f"/>
  </linearGradient>
  <rect width="1200" height="630" fill="url(#ogbg)"/>
  <rect width="1200" height="630" fill="url(#sun)"/>
  <g opacity="0.5">
    <circle cx="980" cy="150" r="90" fill="none" stroke="#1b3d2f" stroke-width="2.5"/>
<circle cx="980" cy="150" r="168" fill="none" stroke="#1b3d2f" stroke-width="2.5"/>
<circle cx="980" cy="150" r="246" fill="none" stroke="#1b3d2f" stroke-width="2.5"/>
<circle cx="980" cy="150" r="324" fill="none" stroke="#1b3d2f" stroke-width="2.5"/>
<circle cx="980" cy="150" r="402" fill="none" stroke="#1b3d2f" stroke-width="2.5"/>
<circle cx="980" cy="150" r="480" fill="none" stroke="#1b3d2f" stroke-width="2.5"/>
<circle cx="980" cy="150" r="558" fill="none" stroke="#1b3d2f" stroke-width="2.5"/>
  </g>
  <!-- mark on the right -->
  <g transform="translate(720, 70) scale(0.46)">
    <g clip-path="url(#headClip)">
      <path d="
M 215 548
C 245 505, 300 484, 362 470
C 432 432, 470 298, 578 258
C 672 270, 752 312, 776 400
C 800 492, 792 600, 756 690
C 730 752, 686 778, 628 772
C 548 766, 470 740, 430 686
C 405 652, 372 612, 330 590
C 300 574, 255 566, 215 558
Z" fill="url(#head)"/>
      <path d="M 180 312 C 360 298, 560 326, 860 298" fill="none" stroke="url(#contour)" stroke-width="7" stroke-linecap="round" opacity="0.9"/>
<path d="M 180 372 C 360 396, 560 348, 860 396" fill="none" stroke="url(#contour)" stroke-width="7" stroke-linecap="round" opacity="0.9"/>
<path d="M 180 432 C 360 418, 560 446, 860 418" fill="none" stroke="url(#contour)" stroke-width="7" stroke-linecap="round" opacity="0.9"/>
<path d="M 180 492 C 360 516, 560 468, 860 516" fill="none" stroke="url(#contour)" stroke-width="7" stroke-linecap="round" opacity="0.9"/>
<path d="M 180 552 C 360 538, 560 566, 860 538" fill="none" stroke="url(#contour)" stroke-width="7" stroke-linecap="round" opacity="0.9"/>
<path d="M 180 612 C 360 636, 560 588, 860 636" fill="none" stroke="url(#contour)" stroke-width="7" stroke-linecap="round" opacity="0.9"/>
<path d="M 180 672 C 360 658, 560 686, 860 658" fill="none" stroke="url(#contour)" stroke-width="7" stroke-linecap="round" opacity="0.9"/>
<path d="M 180 732 C 360 756, 560 708, 860 756" fill="none" stroke="url(#contour)" stroke-width="7" stroke-linecap="round" opacity="0.9"/>
    </g>
    <path d="
M 215 548
C 245 505, 300 484, 362 470
C 432 432, 470 298, 578 258
C 672 270, 752 312, 776 400
C 800 492, 792 600, 756 690
C 730 752, 686 778, 628 772
C 548 766, 470 740, 430 686
C 405 652, 372 612, 330 590
C 300 574, 255 566, 215 558
Z" fill="none" stroke="#7cc593" stroke-width="6" opacity="0.9"/>
    
  <g filter="url(#glow)">
    <circle cx="470" cy="452" r="78" fill="none" stroke="#f4b860" stroke-width="3" opacity="0.30"/>
    <circle cx="470" cy="452" r="50" fill="none" stroke="#f4b860" stroke-width="5"/>
    <line x1="470" y1="386" x2="470" y2="412" stroke="#ffd28a" stroke-width="5" stroke-linecap="round"/>
    <line x1="470" y1="492" x2="470" y2="518" stroke="#ffd28a" stroke-width="5" stroke-linecap="round"/>
    <line x1="404" y1="452" x2="430" y2="452" stroke="#ffd28a" stroke-width="5" stroke-linecap="round"/>
    <line x1="510" y1="452" x2="536" y2="452" stroke="#ffd28a" stroke-width="5" stroke-linecap="round"/>
    <circle cx="470" cy="452" r="24" fill="url(#dot)"/>
    <circle cx="463" cy="445" r="7" fill="#fff6e4" opacity="0.85"/>
  </g>
  </g>
  <!-- wordmark + tagline on the left -->
  <text x="80" y="250" font-family="'Zilla Slab','Georgia',serif" font-size="92" font-weight="700" fill="#eef3ec">MarshSight</text>
  <text x="84" y="318" font-family="'Zilla Slab',serif" font-size="34" font-weight="500" fill="#f4b860" letter-spacing="2">FREE · OPEN-SOURCE · AR NAVIGATION</text>
  <text x="80" y="392" font-family="'Geist','Helvetica',sans-serif" font-size="30" fill="#c7d4cb">Public-land boundaries, river channels, and live</text>
  <text x="80" y="432" font-family="'Geist','Helvetica',sans-serif" font-size="30" fill="#c7d4cb">water levels — over your live camera view.</text>
  <text x="80" y="540" font-family="'Geist',sans-serif" font-size="24" fill="#7cc593">Built on USGS · NOAA · PAD-US public data</text>
</svg>